<?xml version="1.0" standalone="no"?>
<!DOCTYPE svg PUBLIC "-//W3C//DTD SVG 20010904//EN"
 "http://www.w3.org/TR/2001/REC-SVG-20010904/DTD/svg10.dtd">
<svg version="1.0" xmlns="http://www.w3.org/2000/svg"
 width="660.000000pt" height="660.000000pt" viewBox="0 0 660.000000 660.000000"
 preserveAspectRatio="xMidYMid meet">
<metadata>
Created by potrace 1.11, written by Peter Selinger 2001-2013
</metadata>
<g transform="translate(0.000000,660.000000) scale(0.100000,-0.100000)"
fill="#000000" stroke="none">
<path d="M3056 6593 c-3 -3 -41 -7 -83 -8 -109 -3 -141 -13 -183 -55 -37 -37
-70 -92 -70 -116 0 -11 -10 -32 -66 -134 -18 -33 -18 -55 3 -111 15 -44 15
-49 0 -82 -10 -19 -17 -38 -17 -43 0 -4 -6 -15 -13 -23 -7 -9 -30 -53 -50 -98
-42 -93 -42 -97 8 -250 15 -44 23 -88 20 -101 -4 -15 -2 -21 4 -17 19 11 27
-56 15 -118 -17 -82 -10 -159 18 -205 74 -120 109 -162 148 -172 22 -6 42 -15
45 -21 4 -5 8 -49 11 -97 5 -118 13 -231 19 -264 5 -28 -6 -41 -40 -44 -67 -5
-176 -32 -186 -47 -3 -5 -8 -7 -10 -6 -2 2 -26 -10 -52 -25 -26 -16 -88 -43
-138 -62 -49 -18 -103 -41 -118 -50 -29 -17 -74 -93 -86 -146 -12 -47 -53 -83
-166 -146 -67 -37 -83 -47 -94 -57 -19 -17 -57 -43 -140 -98 -90 -59 -152
-104 -176 -127 -9 -8 -30 -26 -48 -39 -73 -55 -218 -282 -254 -397 -22 -71
-48 -185 -61 -269 -8 -48 -19 -198 -31 -390 -3 -56 -8 -116 -10 -135 -11 -88
-15 -121 -24 -210 -6 -52 -13 -117 -16 -143 -28 -271 -26 -887 5 -1067 20
-117 23 -212 22 -707 l0 -513 2081 3 2082 2 0 82 c0 46 -3 83 -7 83 -13 0 -20
89 -24 313 -2 128 -5 261 -8 295 -4 48 -2 68 9 78 8 8 18 15 21 14 4 0 8 40 9
89 l2 90 -33 16 c-35 16 -59 48 -49 65 3 5 1 11 -4 14 -5 3 -10 22 -11 41 -3
72 -5 85 -12 85 -4 0 -7 8 -6 18 0 17 -7 81 -17 151 -4 33 -10 80 -20 156 -3
17 -7 46 -10 65 -3 19 -8 53 -11 75 -3 22 -7 51 -10 65 -2 14 -7 43 -9 65 -3
22 -8 52 -10 68 -3 15 -7 39 -10 55 -7 45 -14 86 -20 112 -10 46 -18 105 -19
133 -1 15 -4 27 -8 27 -4 0 -7 8 -6 18 0 9 -2 27 -5 38 -3 12 -8 39 -11 60 -4
21 -13 63 -21 94 -8 30 -16 66 -19 80 -3 14 -7 34 -10 45 -2 11 -11 52 -20 91
-8 38 -22 91 -31 118 -9 26 -18 61 -20 79 -1 18 -10 53 -19 78 -8 25 -17 54
-19 65 -2 10 -6 26 -9 34 -3 8 -11 35 -18 60 -18 67 -71 213 -83 228 -5 6 -7
12 -4 12 3 0 -15 42 -41 93 -25 50 -47 95 -48 100 -1 4 -3 9 -4 12 -8 16 -3
32 14 46 15 12 16 19 8 35 -18 32 -25 54 -35 115 -6 34 -38 68 -93 100 -31 17
-64 40 -73 51 -8 10 -22 18 -30 18 -8 0 -12 3 -9 6 4 3 -7 18 -23 33 -16 16
-29 31 -29 34 0 10 -29 44 -76 91 -49 50 -94 88 -94 80 0 -3 -12 3 -27 14 -24
16 -137 66 -153 67 -8 1 -103 36 -125 47 -12 5 -28 10 -37 12 -9 1 -45 19 -80
40 -34 21 -73 44 -85 50 -26 13 -39 36 -20 36 8 0 13 21 14 60 3 100 97 270
149 270 20 0 35 17 55 60 18 40 19 161 1 182 -8 11 -8 26 3 60 7 25 15 63 16
84 2 22 8 53 15 69 13 35 11 125 -7 208 -11 51 -9 92 6 192 8 55 8 140 0 165
-5 14 -9 34 -10 45 -2 20 -7 37 -27 85 -5 14 -10 27 -10 30 0 3 -4 11 -10 18
-6 6 -8 12 -4 12 10 0 -52 111 -87 157 -90 117 -127 168 -127 178 0 15 -56 75
-72 77 -14 1 -30 5 -38 8 -16 6 -52 11 -110 15 -36 2 -76 7 -90 10 -14 4 -62
8 -108 9 -45 2 -83 5 -85 7 -1 2 -16 30 -32 63 -16 32 -40 65 -52 73 -21 14
-117 26 -127 16z"/>
</g>
</svg>
